# xmcd
#
# Track frame offsets:
#	188
#	18585
#	30010
#	50110
#	63248
#	77935
#
# Disc length: 1309 seconds
#
# Revision: 1
# Processed by: cddbd v1.5.1PL0 Copyright (c) Steve Scherf et al.
# Submitted via: audiograbber 1.83.01
#
DISCID=43051b06
DTITLE=The Ultras - The Ultras
DYEAR=1991
DGENRE=Rock
TTITLE0=Galactic Kid
TTITLE1=Piece of the Rock
TTITLE2=Tramp on the Road
TTITLE3=Charged
TTITLE4=Kodachrome
TTITLE5=Solar System
EXTD=
EXTT0=
EXTT1=
EXTT2=
EXTT3=
EXTT4=
EXTT5=
PLAYORDER=
